<?xml version="1.0" encoding="utf-8"?>
<!-- Generator: Adobe Illustrator 23.0.0, SVG Export Plug-In . SVG Version: 6.00 Build 0)  -->
<svg version="1.1" id="Layer_1" xmlns="http://www.w3.org/2000/svg" xmlns:xlink="http://www.w3.org/1999/xlink" x="0px" y="0px"
	 viewBox="0 0 234 56" style="enable-background:new 0 0 234 56;" xml:space="preserve">
<style type="text/css">
	.st0{fill:#FFFFFF;}
</style>
<g>
	<rect x="210.5" y="27.7" class="st0" width="23.5" height="1"/>
	<rect x="-0.1" y="27.7" class="st0" width="23.5" height="1"/>
	<g>
		<path class="st0" d="M93.9,51v-3.6h0.4V55h-0.4v-3.6h-2.3V55h-0.4v-7.6h0.4V51L93.9,51L93.9,51z"/>
		<path class="st0" d="M97.3,49.4c0-1.3,0.5-2,1.6-2c1.1,0,1.6,0.7,1.6,2V53c0,0.8-0.2,1.3-0.5,1.6C99.7,54.9,99.3,55,99,55
			c-0.4,0-0.8-0.1-1.1-0.4c-0.3-0.3-0.5-0.8-0.5-1.6C97.3,53,97.3,49.4,97.3,49.4z M97.7,53c0,1.1,0.4,1.7,1.3,1.7
			c0.8,0,1.3-0.5,1.3-1.7v-3.6c0-1.2-0.4-1.7-1.3-1.7c-0.9,0-1.3,0.5-1.3,1.7V53z"/>
		<path class="st0" d="M106.6,55l-2.6-6.5V55h-0.4v-7.6h0.3l2.6,6.5v-6.5h0.4V55H106.6z"/>
		<path class="st0" d="M110,49.4c0-1.3,0.5-2,1.6-2s1.6,0.7,1.6,2v0.2h-0.4v-0.2c0-0.7-0.2-1.2-0.4-1.4s-0.6-0.3-0.8-0.3
			s-0.6,0-0.8,0.3s-0.4,0.7-0.4,1.4V53c0,1.1,0.4,1.7,1.3,1.7c0.8,0,1.3-0.5,1.3-1.7v-1h-1.7v-0.4h2V53c0,1.3-0.5,2-1.6,2
			s-1.6-0.7-1.6-2V49.4z"/>
		<path class="st0" d="M123.9,47.4h0.4L122,51l2.3,4h-0.4l-2.1-3.6l-0.6,1V55h-0.4v-7.6h0.4v4.3L123.9,47.4z"/>
		<path class="st0" d="M126.9,49.4c0-1.3,0.5-2,1.6-2c1.1,0,1.6,0.7,1.6,2V53c0,0.8-0.2,1.3-0.5,1.6c-0.3,0.3-0.7,0.4-1.1,0.4
			c-0.4,0-0.8-0.1-1.1-0.4c-0.3-0.3-0.5-0.8-0.5-1.6C126.9,53,126.9,49.4,126.9,49.4z M127.3,53c0,1.1,0.4,1.7,1.3,1.7
			c0.8,0,1.3-0.5,1.3-1.7v-3.6c0-1.2-0.4-1.7-1.3-1.7c-0.9,0-1.3,0.5-1.3,1.7C127.3,49.4,127.3,53,127.3,53z"/>
		<path class="st0" d="M136.2,55l-2.6-6.5V55h-0.4v-7.6h0.3l2.6,6.5v-6.5h0.4V55H136.2z"/>
		<path class="st0" d="M139.6,49.4c0-1.3,0.5-2,1.6-2s1.6,0.7,1.6,2v0.2h-0.4v-0.2c0-0.7-0.2-1.2-0.4-1.4s-0.6-0.3-0.8-0.3
			c-0.3,0-0.6,0-0.8,0.3s-0.4,0.7-0.4,1.4V53c0,1.1,0.4,1.7,1.3,1.7c0.9,0,1.3-0.5,1.3-1.7v-1h-1.6v-0.4h2V53c0,1.3-0.5,2-1.6,2
			s-1.6-0.7-1.6-2L139.6,49.4L139.6,49.4z"/>
	</g>
	<g>
		<path class="st0" d="M106.4,9.3h1.5v-8H107c-1.1,0.1-1.7,1.2-1.7,2.5h-0.4V1h7.4v2.8h-0.4c0-1.3-0.7-2.5-1.8-2.5h-0.7v8h1.5v0.3
			h-4.5V9.3z"/>
		<path class="st0" d="M112.8,1h4v0.3h-1.2V5h3.3V1.3h-1.2V1h4v0.3h-1.2v8h1.2v0.3h-4V9.3h1.2v-4h-3.3v4h1.2v0.3h-4V9.3h1.2v-8h-1.2
			V1z"/>
		<path class="st0" d="M124.7,5.5v3.9h2.1c1.1,0,1.8-1.1,1.8-2.4h0.4v2.7h-7.2V9.3h1.3v-8h-1.3V1h6.9v2.3h-0.4
			c0-1.1-0.7-2.1-1.8-2.1h-1.8v3.9c1.4,0,1.8-0.3,1.8-1.6h0.4v3.5h-0.4C126.5,5.9,126.1,5.5,124.7,5.5z"/>
	</g>
	<g>
		<g>
			<path class="st0" d="M35.8,28.2c0-5,3.8-9.5,8.6-9.5c1.5,0,2.9,0.5,4.1,1.5l1-1.2h0.6v5.5h-0.6c-0.5-2.8-1.9-5.1-5.1-5.1
				c-2.8,0-4.6,1.7-4.6,8.8s1.8,8.8,4.6,8.8c3.4,0,4.8-2.1,5.4-4.8h0.6v5.2h-0.6l-0.8-1.1c-1.3,1-2.9,1.4-4.5,1.4
				C39.5,37.7,35.8,33.2,35.8,28.2z"/>
			<path class="st0" d="M52.2,18.9h8.7v0.6h-2.7v8.1h7.1v-8.1h-2.7v-0.6h8.7v0.6h-2.7v17.3h2.7v0.6h-8.7v-0.6h2.7v-8.6h-7.1v8.6h2.7
				v0.6h-8.7v-0.6h2.7V19.5h-2.7C52.2,19.5,52.2,18.9,52.2,18.9z"/>
			<path class="st0" d="M77.9,28.5v8.3h4.6c2.4,0,3.8-2.4,3.9-5.1h0.9v5.8H71.7v-0.6h2.9V19.5h-2.9v-0.6h14.8v5h-0.9
				c-0.1-2.4-1.4-4.4-3.9-4.4h-3.8v8.4c3,0,3.8-0.8,3.8-3.4h0.9v7.6h-0.9C81.6,29.4,80.8,28.5,77.9,28.5z"/>
			<path class="st0" d="M88.7,18.9h15v6h-0.9c-0.1-2.9-1.4-5.4-3.9-5.4h-4.1v8.4c3,0,3.8-0.8,3.8-3.4h0.9v7.6h-0.9
				c-0.1-2.7-0.8-3.6-3.8-3.6v8.3h2.7v0.6h-8.9v-0.6h2.9V19.5h-2.9L88.7,18.9L88.7,18.9z"/>
			<path class="st0" d="M112.7,37.4h-0.6v-5.2h0.6c0.6,2.4,2,4.7,5.2,4.7c2.8,0,4.2-1.8,4.2-3.6c0-2.1-1.9-3-4.7-3.7
				c-3.5-0.8-5.1-2.7-5.1-5.6c0-3.6,2.7-5.5,5.6-5.5c1.6,0,2.6,0.4,3.8,1.4l0.6-1.1h0.6v5l-0.6,0c-0.8-3.1-2.3-4.6-4.6-4.6
				c-2,0-3.8,1.4-3.8,3.1c0,2,1.8,2.5,4.4,3.2c3.5,1,5.3,2.6,5.3,6c0,3.7-2.1,6-5.9,6c-1.8,0-2.9-0.5-4.1-1.5L112.7,37.4z"/>
			<path class="st0" d="M139.6,30.2h8.1v0.6h-1.4V31c0,4.2-3.3,6.7-7,6.7c-5.1,0-8.2-4.6-8.2-9.4c0-5.1,3.7-9.7,8.6-9.7
				c1.6,0,2.8,0.5,4,1.5l1.1-1.2h0.6v5.5h-0.6c-0.5-2.8-1.9-5.1-5.1-5.1c-2.8,0-4.6,1.7-4.6,9.1c0,6.8,1.6,8.5,4.2,8.5
				c2.1,0,3.4-1.1,3.4-2.9v-3.1h-3V30.2z"/>
			<path class="st0" d="M146.6,36.8h2.2l6.3-18.2h0.7l6.1,18.2h2.3v0.6h-8.4v-0.6h2.9l-1.7-5.2h-5.5l-1.8,5.2h2.9v0.6h-5.9
				L146.6,36.8L146.6,36.8z M154.1,23.5l-2.5,7.5h5.1L154.1,23.5L154.1,23.5z"/>
			<path class="st0" d="M164.2,18.9h9.1v0.6h-3v17.3h4.2c2.4,0,3.8-2.4,3.9-5.1h0.9v5.8h-15.1v-0.6h2.9V19.5h-2.9L164.2,18.9
				L164.2,18.9z"/>
			<path class="st0" d="M180.6,36.8h2.2l6.3-18.2h0.7l6.1,18.2h2.3v0.6h-8.4v-0.6h2.9l-1.7-5.2h-5.5l-1.8,5.2h2.9v0.6h-5.9
				L180.6,36.8L180.6,36.8z M188.1,23.5l-2.5,7.5h5.1L188.1,23.5L188.1,23.5z"/>
		</g>
		<polygon class="st0" points="108.6,27.4 111.2,18.6 106.1,18.6 		"/>
	</g>
</g>
</svg>
