<?xml version="1.0" encoding="utf-8"?>
<!-- Generator: Adobe Illustrator 23.0.2, SVG Export Plug-In . SVG Version: 6.00 Build 0)  -->
<svg version="1.1" id="Layer_1" xmlns="http://www.w3.org/2000/svg" xmlns:xlink="http://www.w3.org/1999/xlink" x="0px" y="0px"
	 viewBox="0 0 234 56" style="enable-background:new 0 0 234 56;" xml:space="preserve">
<style type="text/css">
	.st0{fill:none;stroke:#000000;stroke-miterlimit:10;}
</style>
<g>
	<line class="st0" x1="210.54" y1="28.16" x2="234.08" y2="28.16"/>
	<line class="st0" x1="-0.08" y1="28.16" x2="23.46" y2="28.16"/>
	<g>
		<path d="M93.86,51.02v-3.64h0.36V55h-0.36v-3.63h-2.31V55h-0.36v-7.63h0.36v3.64H93.86z"/>
		<path d="M97.34,49.39c0-1.3,0.54-2.01,1.62-2.01c1.09,0,1.63,0.7,1.63,2.01v3.59c0,0.85-0.22,1.34-0.53,1.64
			c-0.32,0.31-0.72,0.38-1.1,0.38c-0.36,0-0.77-0.08-1.09-0.38c-0.32-0.31-0.53-0.79-0.53-1.64V49.39z M97.69,52.97
			c0,1.14,0.42,1.67,1.27,1.67c0.83,0,1.27-0.5,1.27-1.67v-3.59c0-1.17-0.42-1.66-1.27-1.66c-0.86,0-1.27,0.53-1.27,1.66V52.97z"/>
		<path d="M106.62,55l-2.64-6.53V55h-0.36v-7.63h0.31l2.63,6.53v-6.53h0.36V55H106.62z"/>
		<path d="M109.96,49.38c0-1.31,0.54-2,1.63-2s1.63,0.69,1.63,2v0.18h-0.36v-0.18c0-0.74-0.18-1.15-0.43-1.38
			c-0.25-0.23-0.57-0.27-0.84-0.27c-0.27,0-0.59,0.05-0.84,0.27s-0.44,0.65-0.44,1.38v3.61c0,1.13,0.42,1.66,1.28,1.66
			c0.85,0,1.27-0.53,1.27-1.66v-1h-1.65v-0.36h2.01v1.36c0,1.31-0.54,2.01-1.63,2.01s-1.63-0.71-1.63-2.01V49.38z"/>
		<path d="M123.86,47.37h0.43l-2.26,3.64l2.26,3.98h-0.41l-2.06-3.61l-0.63,0.96V55h-0.36v-7.63h0.36v4.33L123.86,47.37z"/>
		<path d="M126.93,49.39c0-1.3,0.54-2.01,1.62-2.01c1.09,0,1.63,0.7,1.63,2.01v3.59c0,0.85-0.22,1.34-0.53,1.64
			c-0.32,0.31-0.72,0.38-1.1,0.38c-0.36,0-0.77-0.08-1.09-0.38c-0.32-0.31-0.53-0.79-0.53-1.64V49.39z M127.28,52.97
			c0,1.14,0.42,1.67,1.27,1.67c0.83,0,1.27-0.5,1.27-1.67v-3.59c0-1.17-0.42-1.66-1.27-1.66c-0.86,0-1.27,0.53-1.27,1.66V52.97z"/>
		<path d="M136.21,55l-2.64-6.53V55h-0.36v-7.63h0.31l2.62,6.53v-6.53h0.36V55H136.21z"/>
		<path d="M139.56,49.38c0-1.31,0.54-2,1.63-2s1.63,0.69,1.63,2v0.18h-0.36v-0.18c0-0.74-0.18-1.15-0.43-1.38
			c-0.25-0.23-0.57-0.27-0.84-0.27c-0.27,0-0.59,0.05-0.84,0.27s-0.44,0.65-0.44,1.38v3.61c0,1.13,0.42,1.66,1.28,1.66
			c0.85,0,1.27-0.53,1.27-1.66v-1h-1.65v-0.36h2.01v1.36c0,1.31-0.54,2.01-1.63,2.01s-1.63-0.71-1.63-2.01V49.38z"/>
	</g>
	<g>
		<path d="M106.43,9.32h1.48V1.28h-0.87c-1.07,0.06-1.69,1.21-1.71,2.51h-0.4V1h7.39v2.79h-0.4c-0.02-1.33-0.67-2.51-1.8-2.51h-0.68
			v8.03h1.48V9.6h-4.49V9.32z"/>
		<path d="M112.79,1h4.04v0.28h-1.25v3.75h3.29V1.28h-1.25V1h4.04v0.28h-1.25v8.03h1.25V9.6h-4.04V9.32h1.25V5.32h-3.29v3.99h1.25
			V9.6h-4.04V9.32h1.25V1.28h-1.25V1z"/>
		<path d="M124.74,5.46v3.86h2.12c1.13,0,1.78-1.12,1.8-2.4h0.4V9.6h-7.2V9.32h1.35V1.28h-1.35V1h6.86v2.34h-0.4
			c-0.02-1.11-0.67-2.05-1.8-2.05h-1.78v3.89c1.38,0,1.77-0.35,1.77-1.57h0.4v3.54h-0.4C126.48,5.87,126.12,5.47,124.74,5.46z"/>
	</g>
	<g>
		<g>
			<path d="M35.82,28.16c0-5.05,3.78-9.54,8.59-9.54c1.55,0,2.87,0.47,4.12,1.52l0.96-1.23h0.61v5.54h-0.61
				c-0.54-2.75-1.89-5.1-5.1-5.1c-2.8,0-4.64,1.69-4.64,8.81s1.79,8.81,4.59,8.81c3.39,0,4.78-2.09,5.37-4.76h0.61v5.2h-0.61
				l-0.83-1.13c-1.3,0.98-2.94,1.42-4.54,1.42C39.53,37.71,35.82,33.22,35.82,28.16z"/>
			<path d="M52.16,18.91h8.69v0.61h-2.7v8.07h7.07v-8.07h-2.7v-0.61h8.69v0.61h-2.7V36.8h2.7v0.61h-8.69V36.8h2.7v-8.59h-7.07v8.59
				h2.7v0.61h-8.69V36.8h2.7V19.53h-2.7V18.91z"/>
			<path d="M77.87,28.5v8.29h4.56c2.43,0,3.83-2.4,3.88-5.15h0.86v5.77H71.69V36.8h2.9V19.53h-2.9v-0.61h14.75v5.03h-0.86
				c-0.05-2.38-1.45-4.42-3.88-4.42h-3.83v8.37c2.97,0,3.8-0.76,3.8-3.39h0.86v7.61h-0.86C81.6,29.39,80.84,28.53,77.87,28.5z"/>
			<path d="M88.71,18.91h14.99v6.01h-0.86c-0.05-2.87-1.45-5.4-3.88-5.4H94.9v8.37c2.97,0,3.8-0.76,3.8-3.39h0.86v7.61H98.7
				c-0.07-2.72-0.83-3.58-3.8-3.61v8.29h2.7v0.61h-8.88V36.8h2.9V19.53h-2.9V18.91z"/>
			<path d="M112.73,37.41h-0.61v-5.15h0.64c0.59,2.36,2.04,4.69,5.18,4.69c2.77,0,4.15-1.79,4.15-3.58c0-2.11-1.89-3.04-4.74-3.7
				c-3.53-0.83-5.08-2.67-5.08-5.57c0-3.56,2.67-5.47,5.57-5.47c1.57,0,2.63,0.42,3.83,1.37l0.64-1.08h0.61v5.01l-0.61,0.02
				c-0.79-3.09-2.33-4.59-4.56-4.59c-2.04,0-3.78,1.35-3.78,3.14c0,2.01,1.84,2.53,4.37,3.21c3.51,0.96,5.32,2.58,5.32,6.01
				c0,3.7-2.11,5.99-5.91,5.99c-1.77,0-2.92-0.49-4.12-1.45L112.73,37.41z"/>
			<path d="M139.57,30.22h8.1v0.61h-1.42v0.22c0,4.17-3.26,6.65-6.97,6.65c-5.08,0-8.24-4.64-8.24-9.37c0-5.13,3.68-9.72,8.56-9.72
				c1.55,0,2.8,0.47,4.02,1.52l1.08-1.23h0.61v5.54h-0.61c-0.54-2.75-1.89-5.1-5.1-5.1c-2.75,0-4.64,1.69-4.64,9.1
				c0,6.82,1.59,8.46,4.24,8.46c2.13,0,3.39-1.08,3.39-2.94v-3.14h-3.02V30.22z"/>
			<path d="M146.63,36.8h2.18l6.33-18.18h0.74l6.06,18.18h2.28v0.61h-8.41V36.8h2.85l-1.72-5.18h-5.54l-1.77,5.18h2.9v0.61h-5.89
				V36.8z M154.14,23.55l-2.53,7.46h5.1l-2.48-7.46H154.14z"/>
			<path d="M164.17,18.91h9.15v0.61h-2.97V36.8h4.2c2.43,0,3.83-2.4,3.88-5.15h0.86v5.77h-15.11V36.8h2.89V19.53h-2.89V18.91z"/>
			<path d="M180.59,36.8h2.18l6.33-18.18h0.74l6.06,18.18h2.28v0.61h-8.42V36.8h2.85l-1.72-5.18h-5.54l-1.77,5.18h2.89v0.61h-5.89
				V36.8z M188.09,23.55l-2.53,7.46h5.1l-2.48-7.46H188.09z"/>
		</g>
		<polygon points="108.63,27.36 111.15,18.62 106.11,18.62 		"/>
	</g>
</g>
</svg>
